<?xml version="1.0" encoding="UTF-8" standalone="no"?>
<!-- Created with Inkscape (http://www.inkscape.org/) -->
<svg
   xmlns:dc="http://purl.org/dc/elements/1.1/"
   xmlns:cc="http://web.resource.org/cc/"
   xmlns:rdf="http://www.w3.org/1999/02/22-rdf-syntax-ns#"
   xmlns:svg="http://www.w3.org/2000/svg"
   xmlns="http://www.w3.org/2000/svg"
   xmlns:sodipodi="http://inkscape.sourceforge.net/DTD/sodipodi-0.dtd"
   xmlns:inkscape="http://www.inkscape.org/namespaces/inkscape"
   width="744.09448819"
   height="1052.3622047"
   id="svg2"
   sodipodi:version="0.32"
   inkscape:version="0.43"
   sodipodi:docbase="/home/haustein/Desktop"
   sodipodi:docname="rhino2.svg">
  <defs
     id="defs4" />
  <sodipodi:namedview
     id="base"
     pagecolor="#ffffff"
     bordercolor="#666666"
     borderopacity="1.0"
     inkscape:pageopacity="0.0"
     inkscape:pageshadow="2"
     inkscape:zoom="2.0633852"
     inkscape:cx="366.94208"
     inkscape:cy="757.42383"
     inkscape:document-units="px"
     inkscape:current-layer="layer1"
     inkscape:window-width="965"
     inkscape:window-height="944"
     inkscape:window-x="50"
     inkscape:window-y="44" />
  <metadata
     id="metadata7">
    <rdf:RDF>
      <cc:Work
         rdf:about="">
        <dc:format>image/svg+xml</dc:format>
        <dc:type
           rdf:resource="http://purl.org/dc/dcmitype/StillImage" />
      </cc:Work>
    </rdf:RDF>
  </metadata>
  <g
     inkscape:label="Layer 1"
     inkscape:groupmode="layer"
     id="layer1">
    <path
       sodipodi:type="arc"
       style="fill:#0000ff;fill-opacity:1;fill-rule:evenodd;stroke:none;stroke-width:1px;stroke-linecap:butt;stroke-linejoin:miter;stroke-opacity:1"
       id="path1309"
       sodipodi:cx="325.40146"
       sodipodi:cy="205.62604"
       sodipodi:rx="33.232491"
       sodipodi:ry="28.386086"
       d="M 358.63395 205.62604 A 33.232491 28.386086 0 1 1  292.16897,205.62604 A 33.232491 28.386086 0 1 1  358.63395 205.62604 z"
       transform="matrix(0.290655,0.69119,-0.675074,0.517378,381.9929,-118.4742)"
       inkscape:export-filename="/home/haustein/Desktop/path4832.png"
       inkscape:export-xdpi="127.87"
       inkscape:export-ydpi="127.87" />
    <path
       style="fill:#00ff00;fill-opacity:1;fill-rule:evenodd;stroke:none;stroke-width:1px;stroke-linecap:butt;stroke-linejoin:miter;stroke-opacity:1"
       d="M 341.09375 224.53125 C 308.22399 224.9342 279.99699 237.07345 266.875 259.5625 C 244.77479 297.43881 273.81756 350.42407 331.6875 377.84375 C 365.91766 394.06253 402.59947 397.7142 431.4375 390.15625 C 424.94188 387.27336 417.35292 383.73538 413.46875 381.25 C 402.48516 374.22193 401.61452 373.25138 393.3125 364 C 384.54263 354.22733 382.32481 332.36198 378.75 323.3125 C 381.82602 327.53727 386.5828 333.66132 387.96875 334.84375 C 392.01428 338.29528 412.60336 351.29995 431.5625 356.375 C 447.20216 360.5615 464.24481 360.02566 476.71875 358.65625 C 498.53561 320.79776 469.48778 267.98207 411.75 240.625 C 388.24034 229.48575 363.58358 224.25554 341.09375 224.53125 z M 376.03125 319.21875 C 376.03347 319.21878 376.05984 319.21816 376.0625 319.21875 C 376.06604 319.22047 376.08977 319.24771 376.09375 319.25 C 376.10704 319.2586 376.13886 319.26738 376.15625 319.28125 C 376.30646 319.40648 376.59043 319.7173 377.03125 320.21875 C 377.6386 320.90964 378.19402 321.95933 378.71875 323.28125 C 377.22386 321.22707 376.13872 319.61593 376.03125 319.28125 C 376.03012 319.27698 376.03197 319.25374 376.03125 319.25 C 376.03177 319.24785 376.03031 319.22037 376.03125 319.21875 z "
       id="path1307"
       inkscape:export-filename="/home/haustein/Desktop/path4832.png"
       inkscape:export-xdpi="127.87"
       inkscape:export-ydpi="127.87" />
    <path
       sodipodi:type="arc"
       style="fill:#0000ff;fill-opacity:1;fill-rule:evenodd;stroke:none;stroke-width:1px;stroke-linecap:butt;stroke-linejoin:miter;stroke-opacity:1"
       id="path1311"
       sodipodi:cx="353.78754"
       sodipodi:cy="209.08775"
       sodipodi:rx="24.232023"
       sodipodi:ry="27.693741"
       d="M 378.01956 209.08775 A 24.232023 27.693741 0 1 1  329.55551,209.08775 A 24.232023 27.693741 0 1 1  378.01956 209.08775 z"
       transform="matrix(0.561411,-0.86053,0.691376,0.677858,-41.59387,384.8166)"
       inkscape:export-filename="/home/haustein/Desktop/path4832.png"
       inkscape:export-xdpi="127.87"
       inkscape:export-ydpi="127.87" />
    <path
       sodipodi:type="arc"
       style="opacity:1;fill:#ffffff;fill-opacity:1"
       id="path2196"
       sodipodi:cx="359.32629"
       sodipodi:cy="291.47662"
       sodipodi:rx="21.46265"
       sodipodi:ry="25.616711"
       d="M 380.78894 291.47662 A 21.46265 25.616711 0 1 1  337.86364,291.47662 A 21.46265 25.616711 0 1 1  380.78894 291.47662 z"
       transform="matrix(1,0,0,0.810811,-21.11648,36.03554)"
       inkscape:export-filename="/home/haustein/Desktop/path4832.png"
       inkscape:export-xdpi="127.87"
       inkscape:export-ydpi="127.87" />
    <path
       sodipodi:type="arc"
       style="opacity:1;fill:#000000;fill-opacity:1;stroke:none;stroke-opacity:1"
       id="path3073"
       sodipodi:cx="335.09427"
       sodipodi:cy="274.16803"
       sodipodi:rx="8.3081226"
       sodipodi:ry="8.3081226"
       d="M 343.40239 274.16803 A 8.3081226 8.3081226 0 1 1  326.78615,274.16803 A 8.3081226 8.3081226 0 1 1  343.40239 274.16803 z"
       transform="matrix(0.196116,0.980581,-0.980581,0.196116,548.4675,-117.742)"
       inkscape:export-filename="/home/haustein/Desktop/path4832.png"
       inkscape:export-xdpi="127.87"
       inkscape:export-ydpi="127.87" />
    <path
       sodipodi:type="arc"
       style="opacity:1;fill:#ffffff;fill-opacity:1"
       id="path3075"
       sodipodi:cx="359.32629"
       sodipodi:cy="291.47662"
       sodipodi:rx="21.46265"
       sodipodi:ry="25.616711"
       d="M 380.78894 291.47662 A 21.46265 25.616711 0 1 1  337.86364,291.47662 A 21.46265 25.616711 0 1 1  380.78894 291.47662 z"
       transform="matrix(1,0,0,0.810811,13.15456,15.68056)"
       inkscape:export-filename="/home/haustein/Desktop/path4832.png"
       inkscape:export-xdpi="127.87"
       inkscape:export-ydpi="127.87" />
    <path
       sodipodi:type="arc"
       style="opacity:1;fill:#000000;fill-opacity:1;stroke:none;stroke-opacity:1"
       id="path3077"
       sodipodi:cx="335.09427"
       sodipodi:cy="274.16803"
       sodipodi:rx="8.3081226"
       sodipodi:ry="8.3081226"
       d="M 343.40239 274.16803 A 8.3081226 8.3081226 0 1 1  326.78615,274.16803 A 8.3081226 8.3081226 0 1 1  343.40239 274.16803 z"
       transform="translate(33.44024,-11.97756)"
       inkscape:export-filename="/home/haustein/Desktop/path4832.png"
       inkscape:export-xdpi="127.87"
       inkscape:export-ydpi="127.87" />
    <g
       id="g6584"
       transform="translate(-0.969281,0.48464)"
       inkscape:export-filename="/home/haustein/Desktop/path4832.png"
       inkscape:export-xdpi="127.87"
       inkscape:export-ydpi="127.87">
      <path
         transform="matrix(0.227976,-0.261762,0.17204,0.370306,248.6686,174.3392)"
         d="M 375.2502,427.86831 L 337.59692,489.76337 L 299.94363,551.65843 L 265.16758,488.10219 L 230.39153,424.54596 L 302.82086,426.20713 L 375.2502,427.86831 z "
         inkscape:randomized="0"
         inkscape:rounded="0"
         inkscape:flatsided="false"
         sodipodi:arg2="0.54652983"
         sodipodi:arg1="-0.50066772"
         sodipodi:r2="41.828094"
         sodipodi:r1="83.656189"
         sodipodi:cy="468.02423"
         sodipodi:cx="301.86179"
         sodipodi:sides="3"
         id="path3081"
         style="fill:#ff00ff;fill-opacity:1;stroke:none;stroke-opacity:1"
         sodipodi:type="star" />
      <path
         transform="matrix(0.817767,0,0,0.897523,75.90297,16.15924)"
         sodipodi:end="4.1063923"
         sodipodi:start="0.62927181"
         d="M 412.34047,309.93223 A 30.463116,20.770306 0 1 1 370.36114,280.6359"
         sodipodi:ry="20.770306"
         sodipodi:rx="30.463116"
         sodipodi:cy="297.70773"
         sodipodi:cx="387.71237"
         id="path3083"
         style="fill:#ff00ff;fill-opacity:1;stroke:none;stroke-opacity:1"
         sodipodi:type="arc"
         sodipodi:open="true" />
    </g>
    <g
       id="g4826"
       transform="matrix(1.238411,0,0,1.37913,-87.34661,-128.0847)"
       inkscape:export-filename="/home/haustein/Desktop/path4832.png"
       inkscape:export-xdpi="127.87"
       inkscape:export-ydpi="127.87">
      <path
         transform="matrix(0.350496,-0.397222,0.264499,0.561936,212.8967,145.4341)"
         d="M 371.85476,432.36771 L 333.87204,492.98696 L 297.74475,546.46818 L 264.2383,483.26456 L 235.98585,425.23679 L 307.47502,427.82117 L 371.85476,432.36771 z "
         inkscape:randomized="0"
         inkscape:rounded="0"
         inkscape:flatsided="false"
         sodipodi:arg2="0.66232399"
         sodipodi:arg1="-0.47116307"
         sodipodi:r2="40.593033"
         sodipodi:r1="78.551918"
         sodipodi:cy="468.02423"
         sodipodi:cx="301.86179"
         sodipodi:sides="3"
         id="path3085"
         style="fill:#ff0000;fill-opacity:1;stroke:none;stroke-opacity:1"
         sodipodi:type="star" />
      <path
         transform="matrix(1.336719,0,0,1.419198,-80.68251,-111.5857)"
         sodipodi:end="4.1205179"
         sodipodi:start="0.93036903"
         d="M 405.91524,314.36221 A 30.463116,20.770306 0 1 1 370.71655,280.47049 L 387.71237,297.70773 z"
         sodipodi:ry="20.770306"
         sodipodi:rx="30.463116"
         sodipodi:cy="297.70773"
         sodipodi:cx="387.71237"
         id="path3087"
         style="fill:#ff0000;fill-opacity:1;stroke:none;stroke-opacity:1"
         sodipodi:type="arc" />
    </g>
  </g>
</svg>
